<svg width="116" height="127" viewBox="0 0 116 127" fill="none" xmlns="http://www.w3.org/2000/svg">
<path fill-rule="evenodd" clip-rule="evenodd" d="M17.1437 50.8575V38.67C17.1437 36.6037 18.22 34.7925 19.8437 33.75C22.0225 14.7825 38.155 0 57.6962 0C77.2375 0 93.3737 14.7825 95.5562 33.75C97.1762 34.7925 98.2525 36.6037 98.2525 38.67V50.8575C98.2525 54.0938 95.6312 56.7188 92.3912 56.7188C89.1512 56.7188 86.53 54.0938 86.53 50.8575V48.2962C83.3575 64.2525 71.6762 79.065 57.7 79.065C43.7237 79.065 32.0425 64.2525 28.87 48.2962V50.8575C28.87 53.4825 27.1262 55.68 24.745 56.4263C27.0775 64.365 32.2525 71.2237 39.4 75.7237C40.72 75.2887 42.385 75.3713 44.0012 76.2113C46.5962 77.5612 47.92 80.1862 46.9375 82.0612C45.9587 83.9362 43.0637 84.3563 40.4537 83.0025C38.5487 82.0088 37.3412 80.34 37.2137 78.78C29.0275 73.545 23.2225 65.5312 20.8262 56.2875C18.6737 55.425 17.1437 53.325 17.1437 50.8575ZM115.199 110.003V126.878H0.178711V109.999C0.178711 102.03 7.04871 92.22 15.4412 88.2337L34.1162 79.3613L47.08 106.376L53.7175 88.38C53.9764 88.429 54.2349 88.4812 54.4936 88.5334C55.5423 88.7452 56.5938 88.9575 57.6887 88.9575C58.7803 88.9575 59.8262 88.7465 60.8727 88.5354C61.1348 88.4825 61.397 88.4296 61.66 88.38L67.96 105.491L80.6687 79.0612L99.9475 88.23C108.329 92.2162 115.199 102.026 115.199 110.003ZM23.8929 32.3846C23.8745 32.3835 23.856 32.3824 23.8375 32.3812C26.5825 16.1588 40.6975 3.75 57.6887 3.74625C74.8562 3.74625 89.0837 16.4138 91.6187 32.8875C89.665 33.1388 88.0337 34.3425 87.175 36.0262C85.4462 19.8225 72.9212 11.25 57.6887 11.25C42.4562 11.25 29.9312 19.8225 28.2025 36.0262C27.58 34.8037 26.5675 33.8175 25.2962 33.2775C25.0825 32.9212 24.775 32.6175 24.3512 32.46C24.2002 32.403 24.0492 32.394 23.8929 32.3846Z" fill="#03588E"/>
<path d="M53.6847 88.249C53.6847 88.249 57.3028 89.4486 61.8735 88.249L68.0074 105.493L57.3789 122.743L46.5391 105.493L53.6847 88.249Z" fill="#ED1D25"/>
</svg>
