<svg width="30" height="27" viewBox="0 0 30 27" fill="none" xmlns="http://www.w3.org/2000/svg">
<path fill-rule="evenodd" clip-rule="evenodd" d="M21.7071 0.520087C23.9267 0.520087 26.0064 1.37868 27.5773 2.94959C29.1482 4.5205 30.0068 6.60657 30.0005 8.82619C30.0005 11.0458 29.1355 13.1319 27.5646 14.7028L15.5951 26.6277C15.4298 26.7931 15.2072 26.8758 14.9909 26.8758C14.7747 26.8758 14.5521 26.7867 14.3868 26.6214L2.44275 14.6774C0.871837 13.1064 0.000523107 11.0267 0.000523107 8.80711C-0.00583685 6.58749 0.859118 4.50142 2.43003 2.93051C3.99458 1.36596 6.08065 0.501007 8.29391 0.501007C10.5135 0.501007 12.606 1.37232 14.1769 2.94323L15.01 3.77639L15.8305 2.95595C17.4014 1.38504 19.4874 0.520087 21.7071 0.520087ZM14.9909 24.8088L26.3562 13.488C27.6027 12.2415 28.2896 10.5879 28.2833 8.82619C28.2833 7.06449 27.6027 5.4109 26.3562 4.16434C25.1096 2.92415 23.4561 2.23728 21.7007 2.23728C19.9454 2.23728 18.2854 2.92415 17.0389 4.1707L15.6142 5.59534C15.2771 5.93241 14.7366 5.93241 14.3995 5.59534L12.9621 4.15798C11.7156 2.91143 10.0556 2.22456 8.29391 2.22456C6.53856 2.22456 4.88497 2.91143 3.64478 4.15162C2.39823 5.39182 1.71771 7.04541 1.71771 8.80711C1.71771 10.5688 2.40459 12.2224 3.65114 13.469L14.9909 24.8088Z" fill="#03588E"/>
</svg>
