<?xml version="1.0" encoding="UTF-8"?>
<svg width="37px" height="37px" viewBox="0 0 37 37" version="1.1" xmlns="http://www.w3.org/2000/svg" xmlns:xlink="http://www.w3.org/1999/xlink">
    <!-- Generator: Sketch 52.3 (67297) - http://www.bohemiancoding.com/sketch -->
    <title>location</title>
    <desc>Created with Sketch.</desc>
    <g id="Desk" stroke="none" stroke-width="1" fill="none" fill-rule="evenodd">
        <g id="01_Home" transform="translate(-322.000000, -391.000000)" fill="#9A9A9A">
            <g id="Group-25" transform="translate(292.000000, 301.000000)">
                <g id="Group-24" transform="translate(0.000000, 61.000000)">
                    <g id="Group-16" transform="translate(10.000000, 13.000000)">
                        <g id="location" transform="translate(20.000000, 16.000000)">
                            <path d="M18.5,16.0333333 C20.8803333,16.0333333 22.8166667,14.0963833 22.8166667,11.7166667 C22.8166667,9.33695 20.8803333,7.4 18.5,7.4 C16.1196667,7.4 14.1833333,9.33695 14.1833333,11.7166667 C14.1833333,14.0963833 16.1196667,16.0333333 18.5,16.0333333 Z M18.5,8.63333333 C20.20015,8.63333333 21.5833333,10.0165167 21.5833333,11.7166667 C21.5833333,13.4168167 20.20015,14.8 18.5,14.8 C16.79985,14.8 15.4166667,13.4168167 15.4166667,11.7166667 C15.4166667,10.0165167 16.79985,8.63333333 18.5,8.63333333 Z" id="Shape" fill-rule="nonzero"></path>
                            <path d="M18.39085,33.7668167 L27.8511333,20.1033333 C31.3994333,15.3728833 30.8863667,7.59733333 26.75285,3.46443333 C24.5192833,1.23025 21.5494167,0 18.39085,0 C15.2322833,0 12.2624167,1.23025 10.02885,3.46381667 C5.89533333,7.59671667 5.38226667,15.3722667 8.91638333,20.0842167 L18.39085,33.7668167 Z M10.9008167,4.33578333 C12.9019,2.33531667 15.5615833,1.23333333 18.39085,1.23333333 C21.2201167,1.23333333 23.8798,2.33531667 25.8808833,4.33578333 C29.6117167,8.066 30.0711333,15.0886 26.8509,19.3818333 L18.39085,31.59985 L9.91723333,19.3633333 C6.71056667,15.0886 7.1706,8.066 10.9008167,4.33578333 Z" id="Shape" fill-rule="nonzero"></path>
                            <path d="M25.97215,26.5209833 C25.6329833,26.4796667 25.3271167,26.7226333 25.28765,27.0611833 C25.2481833,27.3997333 25.4899167,27.7062167 25.82785,27.7456833 C32.3127167,28.5091167 35.7666667,30.5663167 35.7666667,31.7583333 C35.7666667,33.4319667 29.1979333,35.7666667 18.5,35.7666667 C7.80206667,35.7666667 1.23333333,33.4319667 1.23333333,31.7583333 C1.23333333,30.5663167 4.68728333,28.5091167 11.17215,27.7456833 C11.5100833,27.7062167 11.7518167,27.3991167 11.71235,27.0611833 C11.6722667,26.7226333 11.3664,26.4784333 11.02785,26.5209833 C4.53496667,27.28565 0,29.43905 0,31.7583333 C0,34.3631333 6.35475,37 18.5,37 C30.64525,37 37,34.3631333 37,31.7583333 C37,29.43905 32.4650333,27.28565 25.97215,26.5209833 Z" id="Path"></path>
                        </g>
                    </g>
                </g>
            </g>
        </g>
    </g>
</svg>