<?xml version="1.0" encoding="UTF-8"?>
<svg width="18px" height="18px" viewBox="0 0 18 18" version="1.1" xmlns="http://www.w3.org/2000/svg" xmlns:xlink="http://www.w3.org/1999/xlink">
    <!-- Generator: Sketch 53.2 (72643) - https://sketchapp.com -->
    <title>Path</title>
    <desc>Created with Sketch.</desc>
    <g id="Desk" stroke="none" stroke-width="1" fill="none" fill-rule="evenodd">
        <g id="02_Search_Results" transform="translate(-1267.000000, -614.000000)" fill="#03588E">
            <g id="Group-5" transform="translate(739.000000, 202.000000)">
                <g id="Group-11" transform="translate(512.000000, 394.000000)">
                    <g id="phone-receiver-(3)" transform="translate(16.000000, 18.000000)">
                        <path d="M17.9636269,14.1801451 C18.0017098,14.4719067 17.9127979,14.7255855 17.6972642,14.9411813 L15.1668187,17.4525078 C15.0526632,17.5793472 14.903658,17.6872539 14.7197409,17.7759482 C14.5358238,17.8647668 14.3551088,17.9218446 14.1775959,17.9471813 C14.1649119,17.9471813 14.1267668,17.9504456 14.0633161,17.9567876 C13.9999896,17.9630984 13.917544,17.9663316 13.8160725,17.9663316 C13.5750155,17.9663316 13.1849534,17.9251088 12.645886,17.8426321 C12.1068187,17.7601554 11.447285,17.5571813 10.667285,17.2338031 C9.88709845,16.9103627 9.00242487,16.4251399 8.01310881,15.7783212 C7.02379275,15.1315337 5.97099482,14.2435959 4.85480829,13.1146943 C3.96693264,12.2395026 3.23126425,11.4023627 2.64780311,10.6033057 C2.06434197,9.80418653 1.59503627,9.06534715 1.23988601,8.38675648 C0.884704663,7.7081658 0.618341969,7.09299482 0.440766839,6.54124352 C0.26319171,5.98949223 0.142694301,5.51384456 0.0792746114,5.11430052 C0.0158549223,4.71475648 -0.00951295337,4.40082902 0.00317098446,4.17251813 C0.0158549223,3.94420725 0.0221968912,3.81736788 0.0221968912,3.792 C0.0475647668,3.61442487 0.104642487,3.43367876 0.193430052,3.24976166 C0.282217617,3.06584456 0.390031088,2.91680829 0.516870466,2.80265285 L3.04731606,0.272207254 C3.22489119,0.0946321244 3.4278342,0.00584455959 3.65614508,0.00584455959 C3.82103627,0.00584455959 3.96690155,0.0534093264 4.09374093,0.14853886 C4.22058031,0.243668394 4.32839378,0.360994819 4.41718135,0.500518135 L6.45295337,4.3627772 C6.56710881,4.56572021 6.59881865,4.78768912 6.5480829,5.02868394 C6.49734715,5.26967876 6.38953368,5.47262176 6.22464249,5.63751295 L5.29237306,6.56978238 C5.26700518,6.59515026 5.24480829,6.63637306 5.22578238,6.69345078 C5.20675648,6.7505285 5.19724352,6.79809326 5.19724352,6.83614508 C5.24797927,7.10250777 5.36213472,7.40692228 5.53970984,7.7493886 C5.6919171,8.05380311 5.92656995,8.42480829 6.24366839,8.86240415 C6.56076684,9.3 7.01104663,9.80415544 7.59450777,10.3749326 C8.16528497,10.958456 8.67264249,11.4118446 9.11658031,11.7353472 C9.56042487,12.0586632 9.9315544,12.2965803 10.2296269,12.4487876 C10.5276995,12.6009948 10.7560104,12.6929534 10.9145285,12.7245699 L11.1522902,12.7721658 C11.177658,12.7721658 11.2189741,12.7626218 11.2759896,12.7436269 C11.3330674,12.7245699 11.3742902,12.7024041 11.3996891,12.6770052 L12.4841347,11.5735026 C12.7125699,11.3705907 12.9788083,11.2691192 13.2832539,11.2691192 C13.498943,11.2691192 13.6700829,11.3071399 13.7969223,11.3832746 L13.8159171,11.3832746 L17.487886,13.552228 C17.754342,13.7172435 17.9128601,13.9264663 17.9636269,14.1801451 Z" id="Path"></path>
                    </g>
                </g>
            </g>
        </g>
    </g>
</svg>