<?xml version="1.0" encoding="UTF-8"?>
<svg width="20px" height="21px" viewBox="0 0 20 21" version="1.1" xmlns="http://www.w3.org/2000/svg" xmlns:xlink="http://www.w3.org/1999/xlink">
    <!-- Generator: Sketch 53.2 (72643) - https://sketchapp.com -->
    <title>Shape</title>
    <desc>Created with Sketch.</desc>
    <g id="Desk" stroke="none" stroke-width="1" fill="none" fill-rule="evenodd">
        <g id="05_Site_Map" transform="translate(-387.000000, -141.000000)" fill="#03588E" fill-rule="nonzero">
            <g id="search-(6)" transform="translate(387.000000, 141.000000)">
                <path d="M19.8861538,19.7203846 L14.1711538,13.7769231 C15.6288462,12.315 16.5319231,10.2996154 16.5319231,8.07692308 C16.5319231,3.62307692 12.9088462,0 8.455,0 C4.00115385,0 0.378076923,3.62307692 0.378076923,8.07692308 C0.378076923,12.5307692 4.00115385,16.1538462 8.455,16.1538462 C10.41,16.1538462 12.2042308,15.455 13.6026923,14.2953846 L19.3315385,20.2534615 C19.4069231,20.3323077 19.5076923,20.3715385 19.6088462,20.3715385 C19.705,20.3715385 19.8007692,20.3357692 19.8753846,20.2642308 C20.0284615,20.1169231 20.0330769,19.8734615 19.8861538,19.7203846 Z M8.455,15.3846154 C4.42538462,15.3846154 1.14730769,12.1065385 1.14730769,8.07692308 C1.14730769,4.04730769 4.42538462,0.769230769 8.455,0.769230769 C12.4846154,0.769230769 15.7626923,4.04730769 15.7626923,8.07692308 C15.7626923,12.1065385 12.4842308,15.3846154 8.455,15.3846154 Z" id="Shape"></path>
            </g>
        </g>
    </g>
</svg>