<?xml version="1.0" encoding="UTF-8"?>
<svg width="20px" height="20px" viewBox="0 0 20 20" version="1.1" xmlns="http://www.w3.org/2000/svg" xmlns:xlink="http://www.w3.org/1999/xlink">
    <!-- Generator: Sketch 52.3 (67297) - http://www.bohemiancoding.com/sketch -->
    <title>social-twitter</title>
    <desc>Created with Sketch.</desc>
    <g id="Desk" stroke="none" stroke-width="1" fill="none" fill-rule="evenodd">
        <g id="01_Home" transform="translate(-688.000000, -3082.000000)" fill="#FFFFFF" fill-rule="nonzero">
            <g id="Group-4" transform="translate(0.000000, 2967.000000)">
                <g id="Group" transform="translate(643.000000, 115.000000)">
                    <g id="social-twitter" transform="translate(45.000000, 0.000000)">
                        <path d="M9.9304,0 C4.4548,0 0,4.4548 0,9.9304 C0,15.4056 4.4548,19.8608 9.9304,19.8608 C15.4056,19.8608 19.8608,15.4056 19.8608,9.9304 C19.8608,4.4548 15.4064,0 9.9304,0 Z M14.3604,7.6576 C14.3648,7.756 14.3672,7.8552 14.3672,7.9544 C14.3672,10.9748 12.0688,14.4564 7.8636,14.4564 C6.5728,14.4564 5.3712,14.0792 4.36,13.4304 C4.5388,13.4516 4.7208,13.4624 4.9052,13.4624 C5.9764,13.4624 6.9616,13.0968 7.744,12.484 C6.744,12.4656 5.8996,11.8048 5.6088,10.8964 C5.748,10.9228 5.8916,10.9376 6.0384,10.9376 C6.2468,10.9376 6.4492,10.9104 6.6408,10.858 C5.5952,10.6484 4.8076,9.7248 4.8076,8.6168 C4.8076,8.6072 4.8076,8.5972 4.808,8.588 C5.116,8.7588 5.4684,8.862 5.8428,8.8736 C5.23,8.4644 4.8264,7.7644 4.8264,6.9716 C4.8264,6.5524 4.9388,6.1596 5.1356,5.822 C6.2624,7.2052 7.9472,8.1148 9.8464,8.2108 C9.8072,8.0432 9.7876,7.8692 9.7876,7.6896 C9.7876,6.4276 10.8108,5.404 12.0728,5.404 C12.7304,5.404 13.3236,5.6816 13.7412,6.1256 C14.2624,6.0232 14.7504,5.8336 15.1932,5.5708 C15.0212,6.1048 14.66,6.5524 14.1868,6.8356 C14.6496,6.7804 15.0912,6.658 15.4996,6.476 C15.1948,6.9336 14.8072,7.3364 14.3604,7.6576 Z" id="Shape"></path>
                    </g>
                </g>
            </g>
        </g>
    </g>
</svg>