<?xml version="1.0" encoding="UTF-8"?>
<svg width="140px" height="145px" viewBox="0 0 140 145" version="1.1" xmlns="http://www.w3.org/2000/svg" xmlns:xlink="http://www.w3.org/1999/xlink">
    <!-- Generator: Sketch 53.2 (72643) - https://sketchapp.com -->
    <title>town (1)</title>
    <desc>Created with Sketch.</desc>
    <g id="Desk" stroke="none" stroke-width="1" fill="none" fill-rule="evenodd">
        <g id="04_About_Us" transform="translate(-650.000000, -202.000000)" fill="#000000">
            <g id="town-(1)" transform="translate(650.000000, 202.000000)">
                <path d="M137.440766,26.5834277 L132.623468,26.5834277 L132.623468,19.3334277 C132.623468,17.8834277 131.660121,16.9168555 130.21496,16.9168555 L115.763347,16.9168555 C114.318185,16.9168555 113.354839,17.8834277 113.354839,19.3334277 L113.354839,26.5834277 L108.53754,26.5834277 C107.092379,26.5834277 106.129032,27.55 106.129032,29 L106.129032,67.6665723 L103.720524,67.6665723 L103.720524,60.4165723 C103.720524,58.9665723 102.757177,58 101.312016,58 L98.9032258,58 L98.9032258,55.5834277 C98.9032258,54.1334277 97.939879,53.1668555 96.4947177,53.1668555 C95.0495565,53.1668555 94.0862097,54.1334277 94.0862097,55.5834277 L94.0862097,58 L91.6774194,58 C90.2322581,58 89.2689113,58.9665723 89.2689113,60.4165723 L89.2689113,67.6665723 L82.0431048,67.6665723 L82.0431048,19.3334277 C82.0431048,17.8834277 81.0797581,16.9168555 79.6345968,16.9168555 L72.4087903,16.9168555 L72.4087903,2.41685547 C72.4085081,0.966572266 71.4451613,0 70,0 L41.0967742,0 C39.6516129,0 38.6882661,0.966572266 38.6882661,2.41657227 L38.6882661,16.9165723 L31.4624597,16.9165723 C30.0172984,16.9165723 29.0539516,17.8831445 29.0539516,19.3331445 L29.0539516,82.1665723 L24.2366532,82.1665723 L24.2366532,74.9165723 C24.2366532,73.4665723 23.2733065,72.5 21.8281452,72.5 L7.37653226,72.5 C5.93137097,72.5 4.96802419,73.4665723 4.96802419,74.9165723 L4.96802419,82.1665723 L2.55951613,82.1665723 C1.11435484,82.1665723 0.151008065,83.1331445 0.151008065,84.5831445 L0.151008065,142.583145 C0.151008065,144.033145 1.11435484,144.999717 2.55951613,144.999717 L31.4627419,144.999717 L50.7316532,144.999717 L108.538105,144.999717 L137.441331,144.999717 C138.886492,144.999717 139.849839,144.033145 139.849839,142.583145 L139.849839,29 C139.849556,27.55 138.885927,26.5834277 137.440766,26.5834277 Z M118.172137,21.75 L127.806452,21.75 L127.806452,26.5834277 L118.172137,26.5834277 L118.172137,21.75 L118.172137,21.75 Z M94.0859274,62.8334277 L98.9032258,62.8334277 L98.9032258,67.6668555 L94.0859274,67.6668555 L94.0859274,62.8334277 L94.0859274,62.8334277 Z M33.8709677,21.75 L41.0967742,21.75 C42.5419355,21.75 43.5052823,20.7834277 43.5052823,19.3334277 L43.5052823,4.83342773 L67.5912097,4.83342773 L67.5912097,19.3334277 C67.5912097,20.7834277 68.5545565,21.75 69.9997177,21.75 L77.2255242,21.75 L77.2255242,67.6665723 L72.4082258,67.6665723 L72.4082258,29 C72.4082258,27.55 71.444879,26.5834277 69.9997177,26.5834277 C68.5545565,26.5834277 67.5912097,27.55 67.5912097,29 L67.5912097,67.6665723 L62.7741935,67.6665723 L62.7741935,29 C62.7741935,27.55 61.8108468,26.5834277 60.3656855,26.5834277 C58.9205242,26.5834277 57.9571774,27.55 57.9571774,29 L57.9571774,67.6665723 L53.139879,67.6665723 L53.139879,29 C53.139879,27.55 52.1765323,26.5834277 50.731371,26.5834277 C49.2862097,26.5834277 48.3225806,27.55 48.3225806,29 L48.3225806,70.0834277 L48.3225806,82.1668555 L43.5052823,82.1668555 L43.5052823,29 C43.5052823,27.55 42.5419355,26.5834277 41.0967742,26.5834277 C39.6516129,26.5834277 38.6882661,27.55 38.6882661,29 L38.6882661,82.1665723 L33.8709677,82.1668555 L33.8709677,21.75 Z M9.78504032,77.3334277 L19.4193548,77.3334277 L19.4193548,82.1668555 L9.78504032,82.1668555 L9.78504032,77.3334277 Z M4.96774194,87 L7.37625,87 L21.8278629,87 L31.4621774,87 L48.3225806,87 L48.3225806,91.8334277 L31.4624597,91.8334277 C30.0172984,91.8334277 29.0539516,92.8 29.0539516,94.25 L29.0539516,140.166572 L4.96774194,140.166572 L4.96774194,87 Z M33.8709677,96.6665723 L48.3225806,96.6665723 L48.3225806,101.5 L41.0967742,101.5 C39.6516129,101.5 38.6882661,102.466572 38.6882661,103.916572 C38.6882661,105.366572 39.6516129,106.333145 41.0967742,106.333145 L48.3225806,106.333145 L48.3225806,111.166572 L41.0967742,111.166572 C39.6516129,111.166572 38.6882661,112.133145 38.6882661,113.583145 C38.6882661,115.033145 39.6516129,115.999717 41.0967742,115.999717 L48.3225806,115.999717 L48.3225806,120.833145 L41.0967742,120.833145 C39.6516129,120.833145 38.6882661,121.799717 38.6882661,123.249717 C38.6882661,124.699717 39.6516129,125.666289 41.0967742,125.666289 L48.3225806,125.666289 L48.3225806,130.5 L41.0967742,130.5 C39.6516129,130.5 38.6882661,131.466572 38.6882661,132.916572 C38.6882661,134.366572 39.6516129,135.333145 41.0967742,135.333145 L48.3225806,135.333145 L48.3225806,140.166572 L33.8709677,140.166572 L33.8709677,96.6665723 Z M53.139879,94.25 L53.139879,84.5834277 L53.139879,72.5 L79.6345968,72.5 L91.6774194,72.5 L101.311734,72.5 L106.129032,72.5 L106.129032,140.166572 L101.311734,140.166572 L101.311734,79.75 C101.311734,78.3 100.348387,77.3334277 98.9032258,77.3334277 C97.4580645,77.3334277 96.4947177,78.3 96.4947177,79.75 L96.4947177,140.166572 L91.6774194,140.166572 L91.6774194,79.75 C91.6774194,78.3 90.7140726,77.3334277 89.2689113,77.3334277 C87.82375,77.3334277 86.8604032,78.3 86.8604032,79.75 L86.8604032,140.166572 L82.0431048,140.166572 L82.0431048,79.75 C82.0431048,78.3 81.0797581,77.3334277 79.6345968,77.3334277 C78.1894355,77.3334277 77.2260887,78.3 77.2260887,79.75 L77.2260887,140.166572 L72.4087903,140.166572 L72.4087903,79.75 C72.4087903,78.3 71.4454435,77.3334277 70.0002823,77.3334277 C68.555121,77.3334277 67.5917742,78.3 67.5917742,79.75 L67.5917742,140.166572 L62.7741935,140.166572 L62.7741935,79.75 C62.7741935,78.3 61.8108468,77.3334277 60.3656855,77.3334277 C58.9205242,77.3334277 57.9571774,78.3 57.9571774,79.75 L57.9571774,140.166572 L53.139879,140.166572 L53.139879,94.25 Z M135.032258,140.166572 L110.946331,140.166572 L110.946331,70.0834277 L110.946331,31.4165723 L115.763629,31.4165723 L130.215242,31.4165723 L135.032258,31.4165723 L135.032258,140.166572 Z" id="Shape" fill-rule="nonzero"></path>
                <path d="M118.172137,94.25 C116.726976,94.25 115.763629,95.2165723 115.763629,96.6665723 L115.763629,101.5 C115.763629,102.95 116.726976,103.916572 118.172137,103.916572 C119.617298,103.916572 120.580645,102.95 120.580645,101.5 L120.580645,96.6665723 C120.580645,95.2165723 119.617298,94.25 118.172137,94.25 Z" id="Path"></path>
                <path d="M118.172137,108.75 C116.726976,108.75 115.763629,109.716572 115.763629,111.166572 L115.763629,116 C115.763629,117.45 116.726976,118.416572 118.172137,118.416572 C119.617298,118.416572 120.580645,117.45 120.580645,116 L120.580645,111.166572 C120.580645,109.716572 119.617298,108.75 118.172137,108.75 Z" id="Path"></path>
                <path d="M118.172137,123.25 C116.726976,123.25 115.763629,124.216572 115.763629,125.666572 L115.763629,130.5 C115.763629,131.95 116.726976,132.916572 118.172137,132.916572 C119.617298,132.916572 120.580645,131.95 120.580645,130.5 L120.580645,125.666572 C120.580645,124.216572 119.617298,123.25 118.172137,123.25 Z" id="Path"></path>
                <path d="M118.172137,79.75 C116.726976,79.75 115.763629,80.7165723 115.763629,82.1665723 L115.763629,87 C115.763629,88.45 116.726976,89.4165723 118.172137,89.4165723 C119.617298,89.4165723 120.580645,88.45 120.580645,87 L120.580645,82.1665723 C120.580645,80.7165723 119.617298,79.75 118.172137,79.75 Z" id="Path"></path>
                <path d="M118.172137,36.25 C116.726976,36.25 115.763629,37.2165723 115.763629,38.6665723 L115.763629,43.5 C115.763629,44.95 116.726976,45.9165723 118.172137,45.9165723 C119.617298,45.9165723 120.580645,44.95 120.580645,43.5 L120.580645,38.6665723 C120.580645,37.2165723 119.617298,36.25 118.172137,36.25 Z" id="Path"></path>
                <path d="M118.172137,50.75 C116.726976,50.75 115.763629,51.7165723 115.763629,53.1665723 L115.763629,58 C115.763629,59.45 116.726976,60.4165723 118.172137,60.4165723 C119.617298,60.4165723 120.580645,59.45 120.580645,58 L120.580645,53.1665723 C120.580645,51.7165723 119.617298,50.75 118.172137,50.75 Z" id="Path"></path>
                <path d="M118.172137,65.25 C116.726976,65.25 115.763629,66.2165723 115.763629,67.6665723 L115.763629,72.5 C115.763629,73.95 116.726976,74.9165723 118.172137,74.9165723 C119.617298,74.9165723 120.580645,73.95 120.580645,72.5 L120.580645,67.6665723 C120.580645,66.2165723 119.617298,65.25 118.172137,65.25 Z" id="Path"></path>
                <path d="M127.806452,94.25 C126.36129,94.25 125.397944,95.2165723 125.397944,96.6665723 L125.397944,101.5 C125.397944,102.95 126.36129,103.916572 127.806452,103.916572 C129.251613,103.916572 130.21496,102.95 130.21496,101.5 L130.21496,96.6665723 C130.21496,95.2165723 129.251613,94.25 127.806452,94.25 Z" id="Path"></path>
                <path d="M127.806452,123.25 C126.36129,123.25 125.397944,124.216572 125.397944,125.666572 L125.397944,130.5 C125.397944,131.95 126.36129,132.916572 127.806452,132.916572 C129.251613,132.916572 130.21496,131.95 130.21496,130.5 L130.21496,125.666572 C130.21496,124.216572 129.251613,123.25 127.806452,123.25 Z" id="Path"></path>
                <path d="M127.806452,50.75 C126.36129,50.75 125.397944,51.7165723 125.397944,53.1665723 L125.397944,58 C125.397944,59.45 126.36129,60.4165723 127.806452,60.4165723 C129.251613,60.4165723 130.21496,59.45 130.21496,58 L130.21496,53.1665723 C130.21496,51.7165723 129.251613,50.75 127.806452,50.75 Z" id="Path"></path>
                <path d="M127.806452,36.25 C126.36129,36.25 125.397944,37.2165723 125.397944,38.6665723 L125.397944,43.5 C125.397944,44.95 126.36129,45.9165723 127.806452,45.9165723 C129.251613,45.9165723 130.21496,44.95 130.21496,43.5 L130.21496,38.6665723 C130.21496,37.2165723 129.251613,36.25 127.806452,36.25 Z" id="Path"></path>
                <path d="M127.806452,79.75 C126.36129,79.75 125.397944,80.7165723 125.397944,82.1665723 L125.397944,87 C125.397944,88.45 126.36129,89.4165723 127.806452,89.4165723 C129.251613,89.4165723 130.21496,88.45 130.21496,87 L130.21496,82.1665723 C130.21496,80.7165723 129.251613,79.75 127.806452,79.75 Z" id="Path"></path>
                <path d="M127.806452,108.75 C126.36129,108.75 125.397944,109.716572 125.397944,111.166572 L125.397944,116 C125.397944,117.45 126.36129,118.416572 127.806452,118.416572 C129.251613,118.416572 130.21496,117.45 130.21496,116 L130.21496,111.166572 C130.21496,109.716572 129.251613,108.75 127.806452,108.75 Z" id="Path"></path>
                <path d="M127.806452,65.25 C126.36129,65.25 125.397944,66.2165723 125.397944,67.6665723 L125.397944,72.5 C125.397944,73.95 126.36129,74.9165723 127.806452,74.9165723 C129.251613,74.9165723 130.21496,73.95 130.21496,72.5 L130.21496,67.6665723 C130.21496,66.2165723 129.251613,65.25 127.806452,65.25 Z" id="Path"></path>
                <path d="M12.1935484,120.833428 C10.7483871,120.833428 9.78504032,121.8 9.78504032,123.25 L9.78504032,128.083428 C9.78504032,129.533428 10.7483871,130.5 12.1935484,130.5 C13.6387097,130.5 14.6020565,129.533428 14.6020565,128.083428 L14.6020565,123.25 C14.6020565,121.8 13.6387097,120.833428 12.1935484,120.833428 Z" id="Path"></path>
                <path d="M12.1935484,91.8334277 C10.7483871,91.8334277 9.78504032,92.8 9.78504032,94.25 L9.78504032,99.0834277 C9.78504032,100.533428 10.7483871,101.5 12.1935484,101.5 C13.6387097,101.5 14.6020565,100.533428 14.6020565,99.0834277 L14.6020565,94.25 C14.6020565,92.8 13.6387097,91.8334277 12.1935484,91.8334277 Z" id="Path"></path>
                <path d="M12.1935484,106.333428 C10.7483871,106.333428 9.78504032,107.3 9.78504032,108.75 L9.78504032,113.583428 C9.78504032,115.033428 10.7483871,116 12.1935484,116 C13.6387097,116 14.6020565,115.033428 14.6020565,113.583428 L14.6020565,108.75 C14.6020565,107.3 13.6387097,106.333428 12.1935484,106.333428 Z" id="Path"></path>
                <path d="M21.8278629,106.333428 C20.3827016,106.333428 19.4193548,107.3 19.4193548,108.75 L19.4193548,113.583428 C19.4193548,115.033428 20.3827016,116 21.8278629,116 C23.2730242,116 24.236371,115.033428 24.236371,113.583428 L24.236371,108.75 C24.2366532,107.3 23.2730242,106.333428 21.8278629,106.333428 Z" id="Path"></path>
                <path d="M21.8278629,120.833428 C20.3827016,120.833428 19.4193548,121.8 19.4193548,123.25 L19.4193548,128.083428 C19.4193548,129.533428 20.3827016,130.5 21.8278629,130.5 C23.2730242,130.5 24.236371,129.533428 24.236371,128.083428 L24.236371,123.25 C24.2366532,121.8 23.2730242,120.833428 21.8278629,120.833428 Z" id="Path"></path>
                <path d="M21.8278629,91.8334277 C20.3827016,91.8334277 19.4193548,92.8 19.4193548,94.25 L19.4193548,99.0834277 C19.4193548,100.533428 20.3827016,101.5 21.8278629,101.5 C23.2730242,101.5 24.236371,100.533428 24.236371,99.0834277 L24.236371,94.25 C24.2366532,92.8 23.2730242,91.8334277 21.8278629,91.8334277 Z" id="Path"></path>
                <path d="M50.7310887,21.75 C52.17625,21.75 53.1395968,20.7834277 53.1395968,19.3334277 L53.1395968,12.0834277 C53.1395968,10.6334277 52.17625,9.66685547 50.7310887,9.66685547 C49.2859274,9.66685547 48.3225806,10.6334277 48.3225806,12.0834277 L48.3225806,19.3334277 C48.3225806,20.7834277 49.2859274,21.75 50.7310887,21.75 Z" id="Path"></path>
                <path d="M60.3656855,21.75 C61.8108468,21.75 62.7741935,20.7834277 62.7741935,19.3334277 L62.7741935,12.0834277 C62.7741935,10.6334277 61.8108468,9.66685547 60.3656855,9.66685547 C58.9205242,9.66685547 57.9571774,10.6334277 57.9571774,12.0834277 L57.9571774,19.3334277 C57.9568952,20.7834277 58.9205242,21.75 60.3656855,21.75 Z" id="Path"></path>
            </g>
        </g>
    </g>
</svg>