<svg width="19" height="21" viewBox="0 0 19 21" fill="none" xmlns="http://www.w3.org/2000/svg">
<path fill-rule="evenodd" clip-rule="evenodd" d="M17.5161 2.91754C17.9111 2.91754 18.2533 3.06191 18.5417 3.35063C18.8303 3.63934 18.9745 3.98118 18.9746 4.37635V18.9638C18.9746 19.3585 18.8302 19.7006 18.5414 19.9894C18.2531 20.278 17.9109 20.4224 17.5158 20.4224H1.47004C1.07483 20.4224 0.732991 20.278 0.444319 19.9894C0.155607 19.7005 0.0112305 19.3586 0.0112305 18.9638V4.37639C0.0112305 3.98134 0.155607 3.63934 0.444319 3.35067C0.733031 3.06195 1.07487 2.91758 1.47004 2.91758H2.92865V1.82348C2.92865 1.32214 3.10731 0.8928 3.46436 0.535752C3.82149 0.178624 4.25079 0 4.75221 0H5.48151C5.98306 0 6.41231 0.178624 6.76936 0.535752C7.12649 0.89284 7.30511 1.32214 7.30511 1.82348V2.91758H11.6811V1.82348C11.6811 1.32214 11.8596 0.8928 12.2169 0.535752C12.5739 0.178624 13.0032 0 13.5047 0H14.2339C14.7355 0 15.1645 0.178624 15.5218 0.535712C15.8788 0.8928 16.0575 1.3221 16.0575 1.82344V2.91754H17.5161ZM13.2422 1.56147C13.1739 1.62969 13.14 1.71714 13.14 1.8236V5.10565C13.14 5.21207 13.1739 5.29932 13.2422 5.36778C13.3105 5.43616 13.3979 5.47028 13.5045 5.47028H14.2336C14.3402 5.47028 14.4273 5.436 14.4959 5.36778C14.5642 5.29936 14.5984 5.21207 14.5984 5.10565V1.8236C14.5984 1.71726 14.5642 1.62981 14.4959 1.56147C14.4274 1.49306 14.3402 1.45897 14.2336 1.45897H13.5045C13.3979 1.45897 13.3105 1.49318 13.2422 1.56147ZM4.38758 1.8236C4.38758 1.71714 4.42171 1.62969 4.49008 1.56147C4.5585 1.49318 4.64579 1.45897 4.75221 1.45897H5.48151C5.58797 1.45897 5.67543 1.49306 5.74364 1.56147C5.81194 1.62981 5.84623 1.71726 5.84623 1.8236V5.10565C5.84623 5.21207 5.8121 5.29948 5.74364 5.36778C5.67527 5.436 5.58797 5.47028 5.48151 5.47028H4.75221C4.64579 5.47028 4.55838 5.43616 4.49008 5.36778C4.42186 5.29932 4.38758 5.21207 4.38758 5.10565V1.8236ZM1.47004 18.9636H17.5158V7.29376H1.47004V18.9636Z" fill="#9B9B9B"/>
</svg>
