<?xml version="1.0" encoding="UTF-8"?>
<svg width="1014px" height="285px" viewBox="0 0 1014 285" version="1.1" xmlns="http://www.w3.org/2000/svg" xmlns:xlink="http://www.w3.org/1999/xlink">
    <!-- Generator: Sketch 52.3 (67297) - http://www.bohemiancoding.com/sketch -->
    <title>popularCitiesBg</title>
    <desc>Created with Sketch.</desc>
    <g id="Desk" stroke="none" stroke-width="1" fill="none" fill-rule="evenodd" opacity="0.255557106">
        <g id="01_Home" transform="translate(-426.000000, -2682.000000)" fill="#D2D2D2">
            <polygon id="popularCitiesBg" points="1364.14694 2682 1364.14694 2723.17173 1319.89995 2723.17173 1319.89995 2735.83907 1291.45505 2735.83907 1291.45505 2767.51314 1275.65297 2767.51314 1275.65297 2694.66734 1212.44081 2694.59496 1212.44081 2789.68195 1206.12036 2789.68195 1206.12036 2732.67319 1168.19383 2732.67319 1168.19383 2789.68195 1149.22676 2789.68195 1149.22676 2732.67319 1108.14285 2713.67026 1108.14285 2726.33951 1089.17959 2726.33951 1089.17959 2747.68542 1082.27936 2747.68542 1082.27936 2802.3512 1060.73279 2802.3512 1060.73279 2707.33659 1044.9307 2707.33659 1044.9307 2694.66734 994.361359 2694.66734 994.361359 2808.68487 950.114373 2808.68487 950.114373 2701.00292 893.224576 2701.00292 893.224576 2707.33659 883.742944 2707.33659 883.742944 2748.50832 871.100133 2748.50832 871.100133 2726.33951 845.816413 2726.33951 845.816413 2764.34536 822.140844 2764.34536 822.140844 2739.95929 804.726803 2739.95929 804.726803 2682 769.96145 2682 769.96145 2723.17173 725.714464 2723.17173 725.714464 2735.83907 697.269565 2735.83907 697.269565 2767.51314 681.465577 2767.51314 681.465577 2694.66734 618.253424 2713.82265 618.253424 2789.68195 611.93487 2789.68195 611.93487 2732.67319 574.006438 2732.67319 574.006438 2789.68195 555.043173 2789.68195 426 2967 1440 2967 1440 2764.34536 1414.71628 2764.34536 1414.71628 2789.68195 1398.91609 2789.68195 1398.91609 2682"></polygon>
        </g>
    </g>
</svg>